# xmcd CD database file
#
# Track frame offsets:
#	150
#	18360
#	37762
#	49045
#	67375
#	77322
#	91580
#	106140
#	125065
#	140315
#	154895
#	168785
#	188832
#	207677
#	224030
#	247052
#	258217
#	277062
#	293097
#
# Disc length: 4116 seconds
#
# Revision: 0
# Processed by: cddbd v1.4PL0 Copyright (c) Steve Scherf et al.
# Submitted via: CDex 1.50beta9
#
DISCID=14101213
DTITLE=Various Artist - Country Gospel 20 Classics
DYEAR=1991
DGENRE=Country
TTITLE0=George Highfill - God Loves Country Music
TTITLE1=Bill Sprouse Jr - Since I Met Jesus
TTITLE2=Patty Schauer - I Thank You Jesus
TTITLE3=George Highfill - Not Enough
TTITLE4=Daniel Amos - Ridin' Along
TTITLE5=Cowboy Billy McBride - Happily Married Man
TTITLE6=Dan McCorison - Gospel Cannonball
TTITLE7=Carter Robertson - The Best
TTITLE8=Richie Furay - Psalm 5
TTITLE9=George Highfill - His Name Is Wonderful
TTITLE10=Patty Schauer - Stop, Look And Listen
TTITLE11=George Highfill - Make Me A Friend
TTITLE12=Daniel Amos - The Bibel
TTITLE13=Daniel Amos - Shotgun Angel
TTITLE14=Bonnie Bramlett - I Keep Falling In Love With Him, His Name Is Jesus
TTITLE15=Bruce Herring - Death Couldn't Keep My Jesus Down
TTITLE16=George Highfill - Cause Me To Come
TTITLE17=Chris Hillman - Create In Me A Clien Heart
TTITLE18=George Highfill - Freely, Freely
EXTD=YEAR: 1991
EXTT0=
EXTT1=
EXTT2=
EXTT3=
EXTT4=
EXTT5=
EXTT6=
EXTT7=
EXTT8=
EXTT9=
EXTT10=
EXTT11=
EXTT12=
EXTT13=
EXTT14=
EXTT15=
EXTT16=
EXTT17=
EXTT18=
PLAYORDER=
